<?xml version="1.0" encoding="UTF-8" standalone="no"?>
<!-- Created with Inkscape (http://www.inkscape.org/) -->

<svg
   xmlns:dc="http://purl.org/dc/elements/1.1/"
   xmlns:cc="http://creativecommons.org/ns#"
   xmlns:rdf="http://www.w3.org/1999/02/22-rdf-syntax-ns#"
   xmlns:svg="http://www.w3.org/2000/svg"
   xmlns="http://www.w3.org/2000/svg"
   xmlns:xlink="http://www.w3.org/1999/xlink"
   xmlns:sodipodi="http://sodipodi.sourceforge.net/DTD/sodipodi-0.dtd"
   xmlns:inkscape="http://www.inkscape.org/namespaces/inkscape"
   id="svg2"
   version="1.1"
   inkscape:version="0.91 r13725"
   width="481"
   height="596"
   viewBox="0 0 481 596"
   sodipodi:docname="vantuz-windows-10-liberatum.svg">
  <metadata
     id="metadata8">
    <rdf:RDF>
      <cc:Work
         rdf:about="">
        <dc:format>image/svg+xml</dc:format>
        <dc:type
           rdf:resource="http://purl.org/dc/dcmitype/StillImage" />
        <dc:title></dc:title>
      </cc:Work>
    </rdf:RDF>
  </metadata>
  <defs
     id="defs6">
    <linearGradient
       inkscape:collect="always"
       id="linearGradient4140">
      <stop
         style="stop-color:#000000;stop-opacity:1;"
         offset="0"
         id="stop4142" />
      <stop
         style="stop-color:#000000;stop-opacity:0;"
         offset="1"
         id="stop4144" />
    </linearGradient>
    <meshGradient
       inkscape:collect="always"
       xlink:href="#linearGradient4140"
       id="meshGradient4146"
       x="-1429.4862"
       y="-372.97324"
       gradientUnits="userSpaceOnUse"
       gradientTransform="translate(1462.2203,467.20338)">
      <meshRow
         id="meshRow5948">
        <meshPatch
           id="meshPatch5950">
          <stop
             path="c 28.4542,0  56.9084,0  85.3625,0"
             style="stop-color:#000000;stop-opacity:1"
             id="stop5952" />
          <stop
             path="c 0,27.3229  0,54.6458  0,81.9687"
             style="stop-color:#000000;stop-opacity:1"
             id="stop5954" />
          <stop
             path="c -28.4542,0  -56.9084,0  -85.3625,0"
             style="stop-color:#000000;stop-opacity:1"
             id="stop5956" />
          <stop
             path="c 0,-27.3229  0,-54.6458  0,-81.9687"
             style="stop-color:#000000;stop-opacity:1"
             id="stop5958" />
        </meshPatch>
        <meshPatch
           id="meshPatch5960">
          <stop
             path="c 28.4542,0  56.9084,0  85.3625,0"
             id="stop5962" />
          <stop
             path="c 0,27.3229  0,54.6458  0,81.9687"
             style="stop-color:#000000;stop-opacity:1"
             id="stop5964" />
          <stop
             path="c -28.4542,0  -56.9084,0  -85.3625,0"
             style="stop-color:#000000;stop-opacity:1"
             id="stop5966" />
        </meshPatch>
        <meshPatch
           id="meshPatch5968">
          <stop
             path="c 28.4542,0  56.9084,0  85.3625,0"
             id="stop5970" />
          <stop
             path="c 0,27.3229  0,54.6458  0,81.9687"
             style="stop-color:#000000;stop-opacity:1"
             id="stop5972" />
          <stop
             path="c -28.4542,0  -56.9084,0  -85.3625,0"
             style="stop-color:#000000;stop-opacity:1"
             id="stop5974" />
        </meshPatch>
        <meshPatch
           id="meshPatch5976">
          <stop
             path="c 28.4542,0  56.9084,0  85.3625,0"
             id="stop5978" />
          <stop
             path="c 0,27.3229  0,54.6458  0,81.9687"
             style="stop-color:#000000;stop-opacity:1"
             id="stop5980" />
          <stop
             path="c -28.4542,0  -56.9084,0  -85.3625,0"
             style="stop-color:#80e5ff;stop-opacity:1"
             id="stop5982" />
        </meshPatch>
        <meshPatch
           id="meshPatch5984">
          <stop
             path="c 28.4542,0  56.9084,0  85.3625,0"
             id="stop5986" />
          <stop
             path="c 0,27.3229  0,54.6458  0,81.9687"
             style="stop-color:#ff55dd;stop-opacity:1"
             id="stop5988" />
          <stop
             path="c -28.4542,0  -56.9084,0  -85.3625,0"
             style="stop-color:#000000;stop-opacity:1"
             id="stop5990" />
        </meshPatch>
      </meshRow>
      <meshRow
         id="meshRow5992">
        <meshPatch
           id="meshPatch5994">
          <stop
             path="c 0,27.3229  0,54.6458  0,81.9687"
             id="stop5996" />
          <stop
             path="c -28.4542,0  -56.9084,0  -85.3625,0"
             style="stop-color:#000000;stop-opacity:1"
             id="stop5998" />
          <stop
             path="c 0,-27.3229  0,-54.6458  0,-81.9687"
             style="stop-color:#000000;stop-opacity:1"
             id="stop6000" />
        </meshPatch>
        <meshPatch
           id="meshPatch6002">
          <stop
             path="c 0,27.3229  0,54.6458  0,81.9687"
             id="stop6004" />
          <stop
             path="c -28.4542,0  -56.9084,0  -85.3625,0"
             style="stop-color:#000000;stop-opacity:1"
             id="stop6006" />
        </meshPatch>
        <meshPatch
           id="meshPatch6008">
          <stop
             path="c 0,27.3229  0,54.6458  0,81.9687"
             id="stop6010" />
          <stop
             path="c -28.4542,0  -56.9084,0  -85.3625,0"
             style="stop-color:#e5ff80;stop-opacity:1"
             id="stop6012" />
        </meshPatch>
        <meshPatch
           id="meshPatch6014">
          <stop
             path="c 0,27.3229  0,54.6458  0,81.9687"
             id="stop6016" />
          <stop
             path="c -28.4542,0  -56.9084,0  -85.3625,0"
             style="stop-color:#000000;stop-opacity:1"
             id="stop6018" />
        </meshPatch>
        <meshPatch
           id="meshPatch6020">
          <stop
             path="c 0,27.3229  0,54.6458  0,81.9687"
             id="stop6022" />
          <stop
             path="c -28.4542,0  -56.9084,0  -85.3625,0"
             style="stop-color:#000000;stop-opacity:1"
             id="stop6024" />
        </meshPatch>
      </meshRow>
      <meshRow
         id="meshRow6026">
        <meshPatch
           id="meshPatch6028">
          <stop
             path="c 0,27.3229  0,54.6458  0,81.9687"
             id="stop6030" />
          <stop
             path="c -28.4542,0  -56.9084,0  -85.3625,0"
             style="stop-color:#8dd35f;stop-opacity:1"
             id="stop6032" />
          <stop
             path="c 0,-27.3229  0,-54.6458  0,-81.9687"
             style="stop-color:#000000;stop-opacity:1"
             id="stop6034" />
        </meshPatch>
        <meshPatch
           id="meshPatch6036">
          <stop
             path="c 0,27.3229  0,54.6458  0,81.9687"
             id="stop6038" />
          <stop
             path="c -28.4542,0  -56.9084,0  -85.3625,0"
             style="stop-color:#55ddff;stop-opacity:1"
             id="stop6040" />
        </meshPatch>
        <meshPatch
           id="meshPatch6042">
          <stop
             path="c 0,27.3229  0,54.6458  0,81.9687"
             id="stop6044" />
          <stop
             path="c -28.4542,0  -56.9084,0  -85.3625,0"
             style="stop-color:#000000;stop-opacity:1"
             id="stop6046" />
        </meshPatch>
        <meshPatch
           id="meshPatch6048">
          <stop
             path="c 0,27.3229  0,54.6458  0,81.9687"
             id="stop6050" />
          <stop
             path="c -28.4542,0  -56.9084,0  -85.3625,0"
             style="stop-color:#000000;stop-opacity:1"
             id="stop6052" />
        </meshPatch>
        <meshPatch
           id="meshPatch6054">
          <stop
             path="c 0,27.3229  0,54.6458  0,81.9687"
             id="stop6056" />
          <stop
             path="c -28.4542,0  -56.9084,0  -85.3625,0"
             style="stop-color:#000000;stop-opacity:1"
             id="stop6058" />
        </meshPatch>
      </meshRow>
      <meshRow
         id="meshRow6060">
        <meshPatch
           id="meshPatch6062">
          <stop
             path="c 0,27.3229  0,54.6458  0,81.9687"
             id="stop6064" />
          <stop
             path="c -28.4542,0  -56.9084,0  -85.3625,0"
             style="stop-color:#d4aa00;stop-opacity:1"
             id="stop6066" />
          <stop
             path="c 0,-27.3229  0,-54.6458  0,-81.9687"
             style="stop-color:#000000;stop-opacity:1"
             id="stop6068" />
        </meshPatch>
        <meshPatch
           id="meshPatch6070">
          <stop
             path="c 0,27.3229  0,54.6458  0,81.9687"
             id="stop6072" />
          <stop
             path="c -28.4542,0  -56.9084,0  -85.3625,0"
             style="stop-color:#ff2a7f;stop-opacity:1"
             id="stop6074" />
        </meshPatch>
        <meshPatch
           id="meshPatch6076">
          <stop
             path="c 0,27.3229  0,54.6458  0,81.9687"
             id="stop6078" />
          <stop
             path="c -28.4542,0  -56.9084,0  -85.3625,0"
             style="stop-color:#000000;stop-opacity:1"
             id="stop6080" />
        </meshPatch>
        <meshPatch
           id="meshPatch6082">
          <stop
             path="c 0,27.3229  0,54.6458  0,81.9687"
             id="stop6084" />
          <stop
             path="c -28.4542,0  -56.9084,0  -85.3625,0"
             style="stop-color:#000000;stop-opacity:1"
             id="stop6086" />
        </meshPatch>
        <meshPatch
           id="meshPatch6088">
          <stop
             path="c 0,27.3229  0,54.6458  0,81.9687"
             id="stop6090" />
          <stop
             path="c -28.4542,0  -56.9084,0  -85.3625,0"
             style="stop-color:#000000;stop-opacity:1"
             id="stop6092" />
        </meshPatch>
      </meshRow>
      <meshRow
         id="meshRow6094">
        <meshPatch
           id="meshPatch6096">
          <stop
             path="c 0,27.3229  0,54.6458  0,81.9687"
             id="stop6098" />
          <stop
             path="c -28.4542,0  -56.9084,0  -85.3625,0"
             style="stop-color:#000000;stop-opacity:1"
             id="stop6100" />
          <stop
             path="c 0,-27.3229  0,-54.6458  0,-81.9687"
             style="stop-color:#000000;stop-opacity:1"
             id="stop6102" />
        </meshPatch>
        <meshPatch
           id="meshPatch6104">
          <stop
             path="c 0,27.3229  0,54.6458  0,81.9687"
             id="stop6106" />
          <stop
             path="c -28.4542,0  -56.9084,0  -85.3625,0"
             style="stop-color:#000000;stop-opacity:1"
             id="stop6108" />
        </meshPatch>
        <meshPatch
           id="meshPatch6110">
          <stop
             path="c 0,27.3229  0,54.6458  0,81.9687"
             id="stop6112" />
          <stop
             path="c -28.4542,0  -56.9084,0  -85.3625,0"
             style="stop-color:#000000;stop-opacity:1"
             id="stop6114" />
        </meshPatch>
        <meshPatch
           id="meshPatch6116">
          <stop
             path="c 0,27.3229  0,54.6458  0,81.9687"
             id="stop6118" />
          <stop
             path="c -28.4542,0  -56.9084,0  -85.3625,0"
             style="stop-color:#000000;stop-opacity:1"
             id="stop6120" />
        </meshPatch>
        <meshPatch
           id="meshPatch6122">
          <stop
             path="c 0,27.3229  0,54.6458  0,81.9687"
             id="stop6124" />
          <stop
             path="c -28.4542,0  -56.9084,0  -85.3625,0"
             style="stop-color:#000000;stop-opacity:1"
             id="stop6126" />
        </meshPatch>
      </meshRow>
    </meshGradient>
  </defs>
  <sodipodi:namedview
     pagecolor="#ffffff"
     bordercolor="#666666"
     borderopacity="1"
     objecttolerance="10"
     gridtolerance="10"
     guidetolerance="10"
     inkscape:pageopacity="0"
     inkscape:pageshadow="2"
     inkscape:window-width="2560"
     inkscape:window-height="1378"
     id="namedview4"
     showgrid="false"
     inkscape:zoom="0.79194631"
     inkscape:cx="329.12943"
     inkscape:cy="460.71777"
     inkscape:window-x="-8"
     inkscape:window-y="-8"
     inkscape:window-maximized="1"
     inkscape:current-layer="svg2" />
  <path
     style="fill:url(#meshGradient4146)"
     d="m 185.52363,502.92783 c -1.3461,-0.74624 -6.2189,-3.17237 -10.8285,-5.39141 -4.6096,-2.21903 -8.9401,-4.4985 -9.6232,-5.06548 -0.6832,-0.56698 -1.9287,-0.76743 -2.7678,-0.44545 -0.839,0.32199 -1.8195,0.1099 -2.1787,-0.47129 -0.4044,-0.65434 0.033,-0.84645 1.1489,-0.50452 0.9911,0.30371 0.4519,-0.21754 -1.1981,-1.15833 -1.65,-0.94079 -5.7715,-3.67973 -9.159,-6.08653 -4.2952,-3.0517 -6.3291,-3.99079 -6.7209,-3.10312 -0.3403,0.77084 -0.4747,0.63539 -0.341,-0.34344 0.2068,-1.51258 -6.3853,-7.54971 -13.6602,-12.51035 -1.7154,-1.16967 -4.3875,-3.3145 -5.938,-4.7663 -1.5505,-1.45181 -3.2069,-2.39997 -3.6809,-2.10703 -0.474,0.29294 -1.1874,0.006 -1.5854,-0.63821 -0.4888,-0.79092 -0.2679,-0.91085 0.6809,-0.3696 1.1362,0.64814 1.1657,0.54393 0.1545,-0.5455 -0.9722,-1.04743 -1.5166,-1.08003 -2.45,-0.1467 -0.66,0.66 -1.6725,1.19311 -2.25,1.18469 -0.5775,-0.008 -0.375,-0.45842 0.45,-1 1.3334,-0.87528 1.3334,-1.10628 0,-2.07902 -1.2308,-0.89796 -1.1511,-0.97996 0.444,-0.45697 1.8956,0.62153 1.8979,0.58659 0.095,-1.40567 -1.9656,-2.17195 -4.1429,-2.82919 -2.9435,-0.88852 0.4456,0.72104 0.2739,0.88282 -0.4573,0.4309 -0.6439,-0.39798 -0.9568,-1.06985 -0.6953,-1.49303 0.4356,-0.70474 -10.74609,-12.56936 -15.166091,-16.09238 -1.035,-0.825 -1.387,-1.275 -0.7822,-1 0.6048,0.275 0.3936,-0.175 -0.4693,-1 -0.863,-0.825 -2.5879,-2.94217 -3.8331,-4.70483 -1.5531,-2.19842 -2.7783,-3.00748 -3.9017,-2.57639 -1.2156,0.46645 -1.4772,0.21017 -1.015,-0.99424 0.4042,-1.0534 0.1862,-1.4552 -0.6214,-1.14528 -1.1411,0.43786 -6.2934,-4.42738 -5.9085,-5.57926 0.4519,-1.35265 -1.0917,-4.91885 -2.3358,-5.39626 -0.7754,-0.29753 -1.4098,-1.32009 -1.4098,-2.27236 0,-1.34663 -0.2666,-1.46471 -1.2,-0.53138 -1.9749,1.97496 -2.9552,1.35919 -1.6714,-1.05 1.0871,-2.04022 1.0438,-2.12204 -0.4648,-0.87756 -1.1556,0.95325 -1.6638,1.01496 -1.6638,0.20204 0,-0.64373 -1.1807,-2.186 -2.6237,-3.42727 -2.4023,-2.06635 -2.4891,-2.39156 -1.0279,-3.85272 1.412,-1.41201 1.4236,-1.73883 0.1009,-2.83663 -1.2291,-1.02002 -1.3899,-0.96673 -0.904,0.29955 1.1335,2.95388 -1.3229,2.69373 -2.5505,-0.27012 -0.6806,-1.64301 -1.8437,-2.98729 -2.5847,-2.98729 -0.7868,0 -1.1078,-0.62408 -0.7717,-1.5 0.3166,-0.825 0.1256,-1.5 -0.4244,-1.5 -0.55,0 -1.2837,0.73941 -1.6305,1.64313 -0.3468,0.90372 -0.9091,1.36459 -1.2495,1.02416 -0.3404,-0.34043 -0.066,-1.28512 0.6096,-2.09932 0.6757,-0.8142 0.9072,-2.00038 0.5144,-2.63597 -0.3928,-0.63558 -0.1489,-1.50498 0.542,-1.932 0.7146,-0.4416 0.9196,-1.32114 0.4755,-2.03969 -0.6,-0.97084 -1.0653,-0.87416 -2.0098,0.41759 -1.1037,1.50934 -1.2911,1.5195 -1.8359,0.0995 -0.3338,-0.86973 -0.2092,-1.33554 0.2769,-1.03513 0.4861,0.30041 1.1508,-0.14959 1.4771,-1 0.3773,-0.98312 0.1861,-1.29451 -0.525,-0.85506 -0.6716,0.4151 -0.9343,0.13942 -0.6578,-0.69024 0.2533,-0.75976 -0.4758,-1.85987 -1.6202,-2.44468 -1.2352,-0.63121 -1.9691,-1.85352 -1.8059,-3.00783 0.2533,-1.79141 0.1903,-1.80672 -0.7997,-0.19451 -0.591,0.9625 -1.5573,1.75 -2.1473,1.75 -0.7173,0 -0.6847,-0.46759 0.098,-1.41097 0.8037,-0.96834 0.841,-1.61498 0.1188,-2.06129 -0.5787,-0.35767 -0.8152,-1.86023 -0.5255,-3.33903 0.4881,-2.49194 0.4541,-2.52396 -0.4646,-0.4376 -0.5451,1.23812 -0.7518,3.03812 -0.4593,4 0.2925,0.96189 -0.2361,0.41607 -1.1747,-1.21293 -0.9386,-1.629 -1.8401,-5.229 -2.0033,-8 -0.2775,-4.7114 -2.7681,-12.53813 -3.9899,-12.53813 -0.3001,0 -0.3504,0.3375 -0.1117,0.75 0.2386,0.4125 0.07,1.65 -0.3755,2.75 -0.724,1.78931 -0.8019,1.73664 -0.7395,-0.5 0.038,-1.375 -0.2586,-3.4 -0.6599,-4.5 -0.6066,-1.66285 -0.5315,-1.74714 0.4456,-0.5 1.3801,1.76158 1.2956,1.3208 -2.484,-12.9472 -1.3764,-5.19595 -2.5026,-10.4569 -2.5026,-11.69098 0,-1.23408 -0.3779,-2.47739 -0.8399,-2.7629 -0.462,-0.28552 -0.3901,-3.34957 0.1598,-6.80902 0.5499,-3.45944 0.9762,-7.8649 0.9473,-9.7899 -0.029,-1.925 0.1722,-2.90593 0.4469,-2.17985 0.5888,1.55661 3.9754,-2.69046 3.4448,-4.32015 -0.179,-0.55 0.018,-0.6562 0.4385,-0.236 0.4202,0.4202 1.9732,-0.39448 3.4511,-1.8104 3.6191,-3.4674 12.5225,-5.66653 21.3431,-5.27175 5.1753,0.23163 7.0437,-0.012 6.8704,-0.89586 -0.1467,-0.74852 0.3955,-0.97094 1.4141,-0.58006 1.0425,0.40006 1.4065,0.23672 0.9866,-0.44273 -0.4108,-0.66467 0.016,-0.89851 1.1151,-0.61107 0.9792,0.25608 2.8053,-0.4232 4.0578,-1.50952 3.291,-2.85428 13.8703,-6.85871 21.741101,-8.22935 16.08059,-2.80031 37.23259,1.87406 56.56439,12.50014 3.9498,2.17109 7.8933,3.5866 9.992,3.5866 1.9068,0 3.9507,0.48372 4.5419,1.07493 1.2237,1.22375 13.325,-0.73617 13.325,-2.15812 0,-0.45264 1.5711,-1.56848 3.4912,-2.47965 1.9202,-0.91117 3.2159,-2.10218 2.8793,-2.64669 -0.3505,-0.56725 0.2657,-0.52038 1.4431,0.10976 2.5306,1.35434 4.2491,1.43275 2.1864,0.0998 -1.1688,-0.75538 -0.8929,-0.97275 1.25,-0.98469 1.5125,-0.008 3.6336,-0.8989 4.7136,-1.97884 1.0961,-1.09612 2.2265,-1.53788 2.559,-1 0.3275,0.52994 1.8064,0.9319 3.2865,0.89324 2.3138,-0.0604 2.4157,-0.17789 0.7273,-0.83802 -1.5531,-0.60723 -1.07,-0.91065 2.3107,-1.45124 2.3508,-0.37592 4.6918,-0.42543 5.2022,-0.11003 0.5103,0.3154 0.6598,-0.12492 0.3323,-0.97848 -0.3276,-0.85357 -0.094,-1.55194 0.5181,-1.55194 0.6124,0 2.0917,-1.125 3.2873,-2.5 1.1955,-1.375 2.6047,-2.5 3.1315,-2.5 0.9215,0 6.1487,-4.37719 13.8284,-11.5797 2.0058,-1.88117 3.9505,-3.4203 4.3215,-3.4203 1.0889,0 3.5316,-2.75812 3.5316,-3.98759 0,-0.62174 0.4008,-0.88275 0.8907,-0.58001 0.4898,0.30273 1.6028,-0.53658 2.4733,-1.86514 0.8705,-1.32857 2.5273,-2.71536 3.6817,-3.08176 1.352,-0.4291 1.8913,-1.20748 1.5153,-2.18718 -0.3879,-1.01077 -0.1245,-1.34483 0.7849,-0.99583 0.8039,0.30848 3.1065,-1.47849 5.5804,-4.33079 2.3165,-2.67078 4.7432,-4.6939 5.3928,-4.49583 0.6495,0.19807 3.2059,-2.02467 5.6809,-4.93943 2.475,-2.91476 5.625,-5.91536 7,-6.668 2.7635,-1.51266 10.2078,-8.06947 16.5906,-14.61271 2.2771,-2.33435 7.0078,-6.5366 10.5128,-9.33833 3.5049,-2.80172 7.1542,-6.2918 8.1096,-7.75572 0.9553,-1.46393 2.8443,-3.12239 4.1977,-3.68548 1.3535,-0.56309 7.8712,-6.30059 14.484,-12.75 6.6127,-6.44944 12.4894,-11.72623 13.0592,-11.72623 1.3604,0 11.0461,-9.49924 11.0461,-10.83342 0,-0.56749 1.0125,-1.34296 2.25,-1.72327 2.5644,-0.78809 5.0406,-3.1302 6.0191,-5.69331 0.3675,-0.9625 1.249,-1.75 1.959,-1.75 0.71,0 1.8529,-0.9 2.5399,-2 0.6869,-1.1 1.9202,-2 2.7405,-2 0.8203,0 1.4987,-0.3375 1.5075,-0.75 0.021,-0.97949 5.5533,-7.25 6.3966,-7.25 0.3571,0 2.0947,-1.575 3.8614,-3.5 1.7667,-1.925 3.7492,-3.5 4.4056,-3.5 0.6564,0 3.8779,-2.5875 7.159,-5.75 8.1152,-7.8219 10.9979,-10.25 12.169,-10.25 0.5459,0 0.9924,-0.675 0.9924,-1.5 0,-0.825 0.3375,-1.50232 0.75,-1.50515 0.4125,-0.003 3.5248,-2.59033 6.9161,-5.74999 3.3913,-3.15967 7.5219,-6.64485 9.1791,-7.74485 1.6572,-1.1 4.841,-3.29465 7.0751,-4.87701 4.4116,-3.12467 10.9519,-3.78298 15.3272,-1.54275 4.1054,2.10202 10.7525,9.25388 10.7525,11.56895 0,1.22803 0.45,2.51089 1,2.85081 1.3704,0.84692 1.2631,9.13306 -0.1529,11.81573 -0.6342,1.20134 -2.6592,3.74614 -4.5,5.6551 -1.8409,1.90897 -3.3471,3.82147 -3.3471,4.25 0,0.42854 -0.675,0.77916 -1.5,0.77916 -0.825,0 -1.5007,0.5625 -1.5016,1.25 0,1.84203 -13.854,15.74667 -30.9984,31.1169 -0.825,0.73963 -2.999,2.98465 -4.8312,4.98894 -1.8322,2.00429 -3.8727,3.64416 -4.5344,3.64416 -0.6617,0 -1.9987,1.34676 -2.971,2.9928 -0.9724,1.64603 -2.604,3.44024 -3.6258,3.98712 -1.0219,0.54688 -3.1474,2.23762 -4.7234,3.75721 -1.576,1.51958 -6.3321,5.91287 -10.569,9.76287 -4.237,3.85 -7.7129,7.36964 -7.7244,7.82143 -0.029,1.16316 -2.6839,3.67857 -3.8819,3.67857 -0.5523,0 -1.277,0.85974 -1.6105,1.91054 -0.3335,1.0508 -1.7676,2.67143 -3.187,3.60141 -1.4193,0.92999 -3.9234,3.22024 -5.5646,5.08946 -1.6412,1.86923 -3.4701,3.39859 -4.0642,3.39859 -0.5941,0 -3.1522,2.1375 -5.6846,4.75 -2.5324,2.6125 -5.8633,5.40924 -7.4021,6.21497 -3.0503,1.59724 -5.6194,4.00665 -9.9084,9.29255 -4.5205,5.57135 -8.9688,9.86602 -12.9675,12.51964 -2.0625,1.36874 -3.754,2.99131 -3.759,3.60573 -0.01,0.61441 -1.4328,2.24211 -3.1729,3.61711 -4.5127,3.56585 -8.8181,7.99762 -8.8181,9.07692 0,0.5077 -0.6901,0.92308 -1.5337,0.92308 -1.6659,0 -7.4663,5.46488 -7.4663,7.03448 0,0.53104 -0.4987,0.96552 -1.1083,0.96552 -1.5446,0 -11.1459,9.91602 -14.4812,14.95593 -1.5196,2.29621 -4.0336,4.83204 -5.5866,5.63518 -1.5531,0.80314 -2.8239,1.90825 -2.8239,2.45581 0,0.54756 -2.475,3.55086 -5.5,6.674 -3.025,3.12314 -5.5,5.9861 -5.5,6.36213 0,0.37603 -0.8977,0.91845 -1.9949,1.20538 -1.0972,0.28693 -2.3108,1.35191 -2.6969,2.36663 -0.386,1.01472 -1.6458,2.5924 -2.7996,3.50596 -1.1538,0.91356 -2.9777,3.3817 -4.0532,5.48475 -2.6357,5.15419 -4.1266,6.72765 -4.8277,5.0953 -0.2932,-0.68259 -0.3241,2.44872 -0.069,6.95847 0.3744,6.60855 0.1618,8.45187 -1.0953,9.5 -0.8579,0.71525 -2.4584,2.19443 -3.5566,3.28706 -1.5747,1.56666 -2.1692,1.70748 -2.8128,0.66616 -0.6458,-1.04493 -0.9471,-0.97913 -1.4438,0.31533 -0.3679,0.95875 -0.2173,1.38215 0.3638,1.02297 2.0162,-1.24604 0.3197,3.10387 -2.3029,5.90496 -2.6289,2.80778 -3.1711,4.0139 -2.744,6.10398 0.1124,0.55 0.2048,4.15 0.2054,8 7e-4,3.85 0.3737,7.45 0.829,8 1.8649,2.2526 5.1733,13.85308 4.7579,16.68295 -0.2452,1.67094 0.092,5.35085 0.7487,8.17757 1.6706,7.18752 2.9034,24.01207 1.7051,23.2715 -0.5813,-0.35924 -0.7949,1.78615 -0.5468,5.4923 0.4295,6.41864 -1.0439,10.28679 -2.9229,7.67301 -0.6412,-0.89192 -0.7237,-0.67234 -0.2642,0.70267 1.3652,4.0848 0.8946,5.88778 -2.4797,9.5 -1.65,1.76633 -3,3.64048 -3,4.16477 0,0.5243 -0.5196,0.63218 -1.1545,0.23974 -0.7468,-0.46151 -0.8817,-0.27207 -0.3821,0.53633 0.9914,1.60408 -1.3657,6.05916 -3.2057,6.05916 -0.7836,0 -1.2596,0.75162 -1.0769,1.7004 0.3436,1.78408 -2.8513,5.57544 -5.581,6.62291 -0.9046,0.34715 -1.5998,1.75543 -1.5998,3.24093 0,1.44486 -0.8407,3.82149 -1.8683,5.28139 -1.0275,1.4599 -2.2088,5.35437 -2.625,8.65437 -0.5666,4.49207 -0.9591,5.49736 -1.5615,4 -0.7636,-1.89789 -0.8082,-1.88513 -0.8749,0.25 -0.039,1.2375 -0.5506,2.25 -1.1377,2.25 -0.6167,0 -0.796,0.85503 -0.4247,2.02512 0.4413,1.39023 0.2273,1.93887 -0.6826,1.75 -0.7289,-0.15132 -1.2128,0.28738 -1.0753,0.97488 0.1375,0.6875 -0.088,1.1544 -0.5,1.03755 -0.4125,-0.11685 -1.875,0.41543 -3.25,1.18285 -3.4165,1.90679 -16.8987,2.23144 -20.0527,0.48286 z M 85.576239,423.63011 c 0,-0.46445 -1.168,-2.15195 -2.5957,-3.75 -2.4103,-2.69806 -2.5079,-2.72702 -1.3673,-0.40554 2.0157,4.1023 3.963,6.14425 3.963,4.15554 z m -14,-18.76319 c 0,-0.82763 -1.9417,-1.29565 -2.3869,-0.57533 -0.2888,0.46731 0.1301,0.84965 0.9309,0.84965 0.8008,0 1.456,-0.12345 1.456,-0.27432 z m -7.659,-10.39235 c -0.9747,-1.65 -2.1558,-3 -2.6247,-3 -0.4688,0 0.1088,1.35 1.2837,3 1.1749,1.65 2.356,3 2.6247,3 0.2686,0 -0.3091,-1.35 -1.2837,-3 z M 238.26923,393.7436 c -0.2535,-0.97297 -0.4776,-0.41903 -0.498,1.23097 -0.02,1.65 0.187,2.44606 0.461,1.76903 0.2739,-0.67703 0.2906,-2.02703 0.037,-3 z m -2.0099,-5.45653 c -0.3192,-0.79773 -0.5561,-0.56078 -0.6041,0.60417 -0.043,1.05416 0.1929,1.64479 0.5252,1.3125 0.3323,-0.33229 0.3678,-1.1948 0.079,-1.91667 z m -0.6831,-3.37152 c 0,-0.85746 -0.4573,-1.27636 -1.0163,-0.9309 -0.5589,0.34546 -0.7574,1.04702 -0.441,1.55902 0.8573,1.38704 1.4573,1.12841 1.4573,-0.62812 z m 0,-27.88196 c 0,-0.24254 -0.45,-0.7191 -1,-1.05902 -0.55,-0.33992 -1,-0.14148 -1,0.44098 0,0.58246 0.45,1.05902 1,1.05902 0.55,0 1,-0.19844 1,-0.44098 z m 3,-0.95203 c 0,-0.21616 -0.6983,-0.661 -1.5519,-0.98855 -0.8899,-0.34149 -1.2913,-0.17385 -0.941,0.39301 0.5873,0.95021 2.4929,1.40545 2.4929,0.59554 z m 6.5,-9.60699 c 0.9955,-1.1 1.3985,-2 0.8956,-2 -0.503,0 -1.4765,0.9 -2.1635,2 -0.687,1.1 -1.0899,2 -0.8955,2 0.1944,0 1.1679,-0.9 2.1634,-2 z m 2.4694,-20.5 c 0,-0.55 -0.4362,-0.325 -0.9694,0.5 -0.5331,0.825 -0.9693,1.95 -0.9693,2.5 0,0.55 0.4362,0.325 0.9693,-0.5 0.5332,-0.825 0.9694,-1.95 0.9694,-2.5 z m -111.0147,150.14638 c 0.4709,-0.47146 1.6613,-0.40104 2.659,0.15728 1.5538,0.86954 1.4345,0.98892 -0.8526,0.85363 -1.4678,-0.0868 -2.2771,-0.5397 -1.8064,-1.01091 z m -31.54969,-27.89638 -1.905,-2.25 2.25,1.90499 c 2.1145,1.79022 2.7053,2.59501 1.905,2.59501 -0.1897,0 -1.2022,-1.0125 -2.25,-2.25 z m -6.905001,-6.75 c -0.3399,-0.55 -0.168,-1 0.382,-1 0.55,0 1.2781,0.45 1.618001,1 0.34,0.55 0.1681,1 -0.381901,1 -0.55,0 -1.2781,-0.45 -1.6181,-1 z m -5.9522,-5.25 c 0.3664,-0.9625 0.2056,-1.75 -0.3574,-1.75 -0.5631,0 -1.2036,0.53975 -1.4235,1.19944 -0.2458,0.73725 -0.6588,0.52457 -1.0719,-0.55194 -0.4018,-1.04719 -0.2746,-1.50572 0.3165,-1.14042 0.5437,0.33602 0.9885,-0.0906 0.9885,-0.94806 0,-0.85746 -0.375,-1.55902 -0.8333,-1.55902 -0.4583,0 -0.8333,-0.675 -0.8333,-1.5 0,-2.11666 0.2037,-1.94974 2.6209,2.147 1.5773,2.67343 1.8548,3.94144 1.0395,4.75 -0.8141,0.80729 -0.9336,0.63384 -0.446,-0.647 z m -56.4688,-93.33333 c 0.048,-1.16495 0.2849,-1.4019 0.6041,-0.60417 0.2889,0.72187 0.2534,1.58438 -0.079,1.91667 -0.3323,0.33229 -0.5686,-0.25834 -0.5252,-1.3125 z m -2.9211,-23.41667 c 0,-1.375 0.227,-1.9375 0.5044,-1.25 0.2774,0.6875 0.2774,1.8125 0,2.5 -0.2774,0.6875 -0.5044,0.125 -0.5044,-1.25 z"
     id="path4138"
     inkscape:connector-curvature="0" />
</svg>
